<svg width="24" height="24" viewBox="0 0 24 24" fill="none" xmlns="http://www.w3.org/2000/svg">
<rect x="9" y="10" width="6" height="4" rx="1" fill="#161616"/>
<path fill-rule="evenodd" clip-rule="evenodd" d="M4.51497 3L6.74251 3C7.43695 3 8 3.67163 8 4.5L8 19.5C8 20.3284 7.43695 21 6.74251 21H4.51497C3.82053 21 3.25749 20.3284 3.25749 19.5V13.5C2.563 13.5 2 12.937 2 12.2425V11.7575C2 11.063 2.563 10.5 3.25749 10.5L3.25749 4.5C3.25749 3.67163 3.82053 3 4.51497 3ZM20.7425 10.5C21.437 10.5 22 11.063 22 11.7575V12.2425C22 12.937 21.437 13.5 20.7425 13.5V19.5C20.7425 20.3284 20.1795 21 19.485 21H17.2575C16.563 21 16 20.3284 16 19.5L16 4.5C16 3.67163 16.563 3 17.2575 3H19.485C20.1795 3 20.7425 3.67163 20.7425 4.5V10.5Z" fill="#161616"/>
</svg>
